<?xml version="1.0" encoding="UTF-8" standalone="no"?>
<!-- Created with Inkscape (http://www.inkscape.org/) -->

<svg
   xmlns:dc="http://purl.org/dc/elements/1.1/"
   xmlns:cc="http://creativecommons.org/ns#"
   xmlns:rdf="http://www.w3.org/1999/02/22-rdf-syntax-ns#"
   xmlns:svg="http://www.w3.org/2000/svg"
   xmlns="http://www.w3.org/2000/svg"
   xmlns:sodipodi="http://sodipodi.sourceforge.net/DTD/sodipodi-0.dtd"
   xmlns:inkscape="http://www.inkscape.org/namespaces/inkscape"
   width="1278.3634"
   height="387.41901"
   id="svg4068"
   version="1.1"
   inkscape:version="0.48.2 r9819"
   sodipodi:docname="mujin_logo_single_wide.svg">
  <defs
     id="defs4070">
    <linearGradient
       gradientTransform="matrix(1.9680178,0,0,1.5817916,16.532556,-22.777436)"
       id="SVGID_17_"
       gradientUnits="userSpaceOnUse"
       x1="0.79930001"
       y1="73.960403"
       x2="159.3015"
       y2="73.960403">
      <stop
         offset="0"
         style="stop-color:#F7AB00"
         id="stop551" />
      <stop
         offset="0.0475"
         style="stop-color:#F5A000"
         id="stop553" />
      <stop
         offset="0.1992"
         style="stop-color:#EF7D00"
         id="stop555" />
      <stop
         offset="0.3541"
         style="stop-color:#EB5E00"
         id="stop557" />
      <stop
         offset="0.5104"
         style="stop-color:#E9430A"
         id="stop559" />
      <stop
         offset="0.6687"
         style="stop-color:#E7290F"
         id="stop561" />
      <stop
         offset="0.8303"
         style="stop-color:#E60E11"
         id="stop563" />
      <stop
         offset="1"
         style="stop-color:#E60012"
         id="stop565" />
    </linearGradient>
    <linearGradient
       gradientTransform="matrix(1.9680178,0,0,1.5817916,16.532556,-22.777436)"
       id="SVGID_16_"
       gradientUnits="userSpaceOnUse"
       x1="0.79830003"
       y1="73.7397"
       x2="159.30119"
       y2="73.7397">
      <stop
         offset="0"
         style="stop-color:#F7AB00"
         id="stop532" />
      <stop
         offset="0.0475"
         style="stop-color:#F5A000"
         id="stop534" />
      <stop
         offset="0.1992"
         style="stop-color:#EF7D00"
         id="stop536" />
      <stop
         offset="0.3541"
         style="stop-color:#EB5E00"
         id="stop538" />
      <stop
         offset="0.5104"
         style="stop-color:#E9430A"
         id="stop540" />
      <stop
         offset="0.6687"
         style="stop-color:#E7290F"
         id="stop542" />
      <stop
         offset="0.8303"
         style="stop-color:#E60E11"
         id="stop544" />
      <stop
         offset="1"
         style="stop-color:#E60012"
         id="stop546" />
    </linearGradient>
    <linearGradient
       gradientTransform="matrix(1.9680178,0,0,1.5817916,16.532556,-22.777436)"
       id="SVGID_15_"
       gradientUnits="userSpaceOnUse"
       x1="0.79790002"
       y1="120.1538"
       x2="159.30119"
       y2="120.1538">
      <stop
         offset="0"
         style="stop-color:#F7AB00"
         id="stop513" />
      <stop
         offset="0.0475"
         style="stop-color:#F5A000"
         id="stop515" />
      <stop
         offset="0.1992"
         style="stop-color:#EF7D00"
         id="stop517" />
      <stop
         offset="0.3541"
         style="stop-color:#EB5E00"
         id="stop519" />
      <stop
         offset="0.5104"
         style="stop-color:#E9430A"
         id="stop521" />
      <stop
         offset="0.6687"
         style="stop-color:#E7290F"
         id="stop523" />
      <stop
         offset="0.8303"
         style="stop-color:#E60E11"
         id="stop525" />
      <stop
         offset="1"
         style="stop-color:#E60012"
         id="stop527" />
    </linearGradient>
    <linearGradient
       gradientTransform="matrix(1.9680178,0,0,1.5817916,16.532556,-22.777436)"
       id="SVGID_14_"
       gradientUnits="userSpaceOnUse"
       x1="0.79790002"
       y1="105.0142"
       x2="159.30119"
       y2="105.0142">
      <stop
         offset="0"
         style="stop-color:#F7AB00"
         id="stop494" />
      <stop
         offset="0.0475"
         style="stop-color:#F5A000"
         id="stop496" />
      <stop
         offset="0.1992"
         style="stop-color:#EF7D00"
         id="stop498" />
      <stop
         offset="0.3541"
         style="stop-color:#EB5E00"
         id="stop500" />
      <stop
         offset="0.5104"
         style="stop-color:#E9430A"
         id="stop502" />
      <stop
         offset="0.6687"
         style="stop-color:#E7290F"
         id="stop504" />
      <stop
         offset="0.8303"
         style="stop-color:#E60E11"
         id="stop506" />
      <stop
         offset="1"
         style="stop-color:#E60012"
         id="stop508" />
    </linearGradient>
    <linearGradient
       gradientTransform="matrix(1.9680178,0,0,1.5817916,16.532556,-22.777436)"
       id="SVGID_13_"
       gradientUnits="userSpaceOnUse"
       x1="0.79790002"
       y1="135.728"
       x2="159.30119"
       y2="135.728">
      <stop
         offset="0"
         style="stop-color:#F7AB00"
         id="stop475" />
      <stop
         offset="0.0475"
         style="stop-color:#F5A000"
         id="stop477" />
      <stop
         offset="0.1992"
         style="stop-color:#EF7D00"
         id="stop479" />
      <stop
         offset="0.3541"
         style="stop-color:#EB5E00"
         id="stop481" />
      <stop
         offset="0.5104"
         style="stop-color:#E9430A"
         id="stop483" />
      <stop
         offset="0.6687"
         style="stop-color:#E7290F"
         id="stop485" />
      <stop
         offset="0.8303"
         style="stop-color:#E60E11"
         id="stop487" />
      <stop
         offset="1"
         style="stop-color:#E60012"
         id="stop489" />
    </linearGradient>
    <linearGradient
       gradientTransform="matrix(1.9680178,0,0,1.5817916,16.532556,-22.777436)"
       id="SVGID_12_"
       gradientUnits="userSpaceOnUse"
       x1="0.79790002"
       y1="152.2056"
       x2="159.30119"
       y2="152.2056">
      <stop
         offset="0"
         style="stop-color:#F7AB00"
         id="stop456" />
      <stop
         offset="0.0475"
         style="stop-color:#F5A000"
         id="stop458" />
      <stop
         offset="0.1992"
         style="stop-color:#EF7D00"
         id="stop460" />
      <stop
         offset="0.3541"
         style="stop-color:#EB5E00"
         id="stop462" />
      <stop
         offset="0.5104"
         style="stop-color:#E9430A"
         id="stop464" />
      <stop
         offset="0.6687"
         style="stop-color:#E7290F"
         id="stop466" />
      <stop
         offset="0.8303"
         style="stop-color:#E60E11"
         id="stop468" />
      <stop
         offset="1"
         style="stop-color:#E60012"
         id="stop470" />
    </linearGradient>
    <linearGradient
       gradientTransform="matrix(1.9680178,0,0,1.5817916,16.532556,-22.777436)"
       id="SVGID_11_"
       gradientUnits="userSpaceOnUse"
       x1="0.79790002"
       y1="40.659199"
       x2="159.30251"
       y2="40.659199">
      <stop
         offset="0"
         style="stop-color:#F7AB00"
         id="stop437" />
      <stop
         offset="0.0475"
         style="stop-color:#F5A000"
         id="stop439" />
      <stop
         offset="0.1992"
         style="stop-color:#EF7D00"
         id="stop441" />
      <stop
         offset="0.3541"
         style="stop-color:#EB5E00"
         id="stop443" />
      <stop
         offset="0.5104"
         style="stop-color:#E9430A"
         id="stop445" />
      <stop
         offset="0.6687"
         style="stop-color:#E7290F"
         id="stop447" />
      <stop
         offset="0.8303"
         style="stop-color:#E60E11"
         id="stop449" />
      <stop
         offset="1"
         style="stop-color:#E60012"
         id="stop451" />
    </linearGradient>
    <linearGradient
       gradientTransform="matrix(1.9680178,0,0,1.5817916,16.532556,-22.777436)"
       id="SVGID_10_"
       gradientUnits="userSpaceOnUse"
       x1="0.79790002"
       y1="85.628403"
       x2="159.30119"
       y2="85.628403">
      <stop
         offset="0"
         style="stop-color:#F7AB00"
         id="stop418" />
      <stop
         offset="0.0475"
         style="stop-color:#F5A000"
         id="stop420" />
      <stop
         offset="0.1992"
         style="stop-color:#EF7D00"
         id="stop422" />
      <stop
         offset="0.3541"
         style="stop-color:#EB5E00"
         id="stop424" />
      <stop
         offset="0.5104"
         style="stop-color:#E9430A"
         id="stop426" />
      <stop
         offset="0.6687"
         style="stop-color:#E7290F"
         id="stop428" />
      <stop
         offset="0.8303"
         style="stop-color:#E60E11"
         id="stop430" />
      <stop
         offset="1"
         style="stop-color:#E60012"
         id="stop432" />
    </linearGradient>
    <linearGradient
       gradientTransform="matrix(1.9680178,0,0,1.5817916,16.532556,-22.777436)"
       id="SVGID_9_"
       gradientUnits="userSpaceOnUse"
       x1="0.79790002"
       y1="59.271"
       x2="159.3028"
       y2="59.271">
      <stop
         offset="0"
         style="stop-color:#F7AB00"
         id="stop399" />
      <stop
         offset="0.0475"
         style="stop-color:#F5A000"
         id="stop401" />
      <stop
         offset="0.1992"
         style="stop-color:#EF7D00"
         id="stop403" />
      <stop
         offset="0.3541"
         style="stop-color:#EB5E00"
         id="stop405" />
      <stop
         offset="0.5104"
         style="stop-color:#E9430A"
         id="stop407" />
      <stop
         offset="0.6687"
         style="stop-color:#E7290F"
         id="stop409" />
      <stop
         offset="0.8303"
         style="stop-color:#E60E11"
         id="stop411" />
      <stop
         offset="1"
         style="stop-color:#E60012"
         id="stop413" />
    </linearGradient>
    <linearGradient
       gradientTransform="matrix(1.9680178,0,0,1.5817916,16.532556,-22.777436)"
       id="SVGID_8_"
       gradientUnits="userSpaceOnUse"
       x1="0.79540002"
       y1="54.075699"
       x2="159.3035"
       y2="54.075699">
      <stop
         offset="0"
         style="stop-color:#F7AB00"
         id="stop380" />
      <stop
         offset="0.0475"
         style="stop-color:#F5A000"
         id="stop382" />
      <stop
         offset="0.1992"
         style="stop-color:#EF7D00"
         id="stop384" />
      <stop
         offset="0.3541"
         style="stop-color:#EB5E00"
         id="stop386" />
      <stop
         offset="0.5104"
         style="stop-color:#E9430A"
         id="stop388" />
      <stop
         offset="0.6687"
         style="stop-color:#E7290F"
         id="stop390" />
      <stop
         offset="0.8303"
         style="stop-color:#E60E11"
         id="stop392" />
      <stop
         offset="1"
         style="stop-color:#E60012"
         id="stop394" />
    </linearGradient>
    <linearGradient
       gradientTransform="matrix(1.9680178,0,0,1.5817916,16.532556,-22.777436)"
       id="SVGID_7_"
       gradientUnits="userSpaceOnUse"
       x1="0.80080003"
       y1="56.144501"
       x2="159.3018"
       y2="56.144501">
      <stop
         offset="0"
         style="stop-color:#F7AB00"
         id="stop361" />
      <stop
         offset="0.0475"
         style="stop-color:#F5A000"
         id="stop363" />
      <stop
         offset="0.1992"
         style="stop-color:#EF7D00"
         id="stop365" />
      <stop
         offset="0.3541"
         style="stop-color:#EB5E00"
         id="stop367" />
      <stop
         offset="0.5104"
         style="stop-color:#E9430A"
         id="stop369" />
      <stop
         offset="0.6687"
         style="stop-color:#E7290F"
         id="stop371" />
      <stop
         offset="0.8303"
         style="stop-color:#E60E11"
         id="stop373" />
      <stop
         offset="1"
         style="stop-color:#E60012"
         id="stop375" />
    </linearGradient>
    <linearGradient
       gradientTransform="matrix(1.9680178,0,0,1.5817916,16.532556,-22.777436)"
       id="SVGID_6_"
       gradientUnits="userSpaceOnUse"
       x1="0.79790002"
       y1="80.534698"
       x2="159.3026"
       y2="80.534698">
      <stop
         offset="0"
         style="stop-color:#F7AB00"
         id="stop342" />
      <stop
         offset="0.0475"
         style="stop-color:#F5A000"
         id="stop344" />
      <stop
         offset="0.1992"
         style="stop-color:#EF7D00"
         id="stop346" />
      <stop
         offset="0.3541"
         style="stop-color:#EB5E00"
         id="stop348" />
      <stop
         offset="0.5104"
         style="stop-color:#E9430A"
         id="stop350" />
      <stop
         offset="0.6687"
         style="stop-color:#E7290F"
         id="stop352" />
      <stop
         offset="0.8303"
         style="stop-color:#E60E11"
         id="stop354" />
      <stop
         offset="1"
         style="stop-color:#E60012"
         id="stop356" />
    </linearGradient>
    <linearGradient
       gradientTransform="matrix(1.9680178,0,0,1.5817916,16.532556,-22.777436)"
       id="SVGID_5_"
       gradientUnits="userSpaceOnUse"
       x1="0.79689997"
       y1="55.497601"
       x2="159.3026"
       y2="55.497601">
      <stop
         offset="0"
         style="stop-color:#F7AB00"
         id="stop323" />
      <stop
         offset="0.0475"
         style="stop-color:#F5A000"
         id="stop325" />
      <stop
         offset="0.1992"
         style="stop-color:#EF7D00"
         id="stop327" />
      <stop
         offset="0.3541"
         style="stop-color:#EB5E00"
         id="stop329" />
      <stop
         offset="0.5104"
         style="stop-color:#E9430A"
         id="stop331" />
      <stop
         offset="0.6687"
         style="stop-color:#E7290F"
         id="stop333" />
      <stop
         offset="0.8303"
         style="stop-color:#E60E11"
         id="stop335" />
      <stop
         offset="1"
         style="stop-color:#E60012"
         id="stop337" />
    </linearGradient>
    <linearGradient
       gradientTransform="matrix(1.9680178,0,0,1.5817916,16.532556,-22.777436)"
       id="SVGID_4_"
       gradientUnits="userSpaceOnUse"
       x1="0.79149997"
       y1="34.825699"
       x2="159.3033"
       y2="34.825699">
      <stop
         offset="0"
         style="stop-color:#F7AB00"
         id="stop304" />
      <stop
         offset="0.0475"
         style="stop-color:#F5A000"
         id="stop306" />
      <stop
         offset="0.1992"
         style="stop-color:#EF7D00"
         id="stop308" />
      <stop
         offset="0.3541"
         style="stop-color:#EB5E00"
         id="stop310" />
      <stop
         offset="0.5104"
         style="stop-color:#E9430A"
         id="stop312" />
      <stop
         offset="0.6687"
         style="stop-color:#E7290F"
         id="stop314" />
      <stop
         offset="0.8303"
         style="stop-color:#E60E11"
         id="stop316" />
      <stop
         offset="1"
         style="stop-color:#E60012"
         id="stop318" />
    </linearGradient>
    <linearGradient
       gradientTransform="matrix(1.9680178,0,0,1.5817916,16.532556,-22.777436)"
       id="SVGID_3_"
       gradientUnits="userSpaceOnUse"
       x1="0.7949"
       y1="11.4546"
       x2="159.302"
       y2="11.4546">
      <stop
         offset="0"
         style="stop-color:#F7AB00"
         id="stop285" />
      <stop
         offset="0.0475"
         style="stop-color:#F5A000"
         id="stop287" />
      <stop
         offset="0.1992"
         style="stop-color:#EF7D00"
         id="stop289" />
      <stop
         offset="0.3541"
         style="stop-color:#EB5E00"
         id="stop291" />
      <stop
         offset="0.5104"
         style="stop-color:#E9430A"
         id="stop293" />
      <stop
         offset="0.6687"
         style="stop-color:#E7290F"
         id="stop295" />
      <stop
         offset="0.8303"
         style="stop-color:#E60E11"
         id="stop297" />
      <stop
         offset="1"
         style="stop-color:#E60012"
         id="stop299" />
    </linearGradient>
    <linearGradient
       gradientTransform="matrix(1.9680178,0,0,1.5817916,16.532556,-22.777436)"
       id="SVGID_2_"
       gradientUnits="userSpaceOnUse"
       x1="0.79979998"
       y1="65.652802"
       x2="159.30141"
       y2="65.652802">
      <stop
         offset="0"
         style="stop-color:#F7AB00"
         id="stop266" />
      <stop
         offset="0.0475"
         style="stop-color:#F5A000"
         id="stop268" />
      <stop
         offset="0.1992"
         style="stop-color:#EF7D00"
         id="stop270" />
      <stop
         offset="0.3541"
         style="stop-color:#EB5E00"
         id="stop272" />
      <stop
         offset="0.5104"
         style="stop-color:#E9430A"
         id="stop274" />
      <stop
         offset="0.6687"
         style="stop-color:#E7290F"
         id="stop276" />
      <stop
         offset="0.8303"
         style="stop-color:#E60E11"
         id="stop278" />
      <stop
         offset="1"
         style="stop-color:#E60012"
         id="stop280" />
    </linearGradient>
    <linearGradient
       gradientTransform="matrix(1.9680178,0,0,1.5817916,16.532556,-22.777436)"
       id="SVGID_1_"
       gradientUnits="userSpaceOnUse"
       x1="0.7974"
       y1="73.834999"
       x2="159.3022"
       y2="73.834999">
      <stop
         offset="0"
         style="stop-color:#F7AB00"
         id="stop247" />
      <stop
         offset="0.0475"
         style="stop-color:#F5A000"
         id="stop249" />
      <stop
         offset="0.1992"
         style="stop-color:#EF7D00"
         id="stop251" />
      <stop
         offset="0.3541"
         style="stop-color:#EB5E00"
         id="stop253" />
      <stop
         offset="0.5104"
         style="stop-color:#E9430A"
         id="stop255" />
      <stop
         offset="0.6687"
         style="stop-color:#E7290F"
         id="stop257" />
      <stop
         offset="0.8303"
         style="stop-color:#E60E11"
         id="stop259" />
      <stop
         offset="1"
         style="stop-color:#E60012"
         id="stop261" />
    </linearGradient>
  </defs>
  <sodipodi:namedview
     id="base"
     pagecolor="#ffffff"
     bordercolor="#666666"
     borderopacity="1.0"
     inkscape:pageopacity="0.0"
     inkscape:pageshadow="2"
     inkscape:zoom="1.3650266"
     inkscape:cx="639.18171"
     inkscape:cy="193.70951"
     inkscape:document-units="px"
     inkscape:current-layer="layer1"
     showgrid="false"
     inkscape:snap-page="false"
     fit-margin-top="50"
     fit-margin-left="250"
     fit-margin-right="250"
     fit-margin-bottom="50"
     inkscape:window-width="1920"
     inkscape:window-height="1055"
     inkscape:window-x="1920"
     inkscape:window-y="0"
     inkscape:window-maximized="1" />
  <metadata
     id="metadata4073">
    <rdf:RDF>
      <cc:Work
         rdf:about="">
        <dc:format>image/svg+xml</dc:format>
        <dc:type
           rdf:resource="http://purl.org/dc/dcmitype/StillImage" />
        <dc:title />
      </cc:Work>
    </rdf:RDF>
  </metadata>
  <g
     inkscape:label="Layer 1"
     inkscape:groupmode="layer"
     id="layer1"
     transform="translate(233.46744,72.775884)">
    <path
       style="fill:#646c71"
       inkscape:connector-curvature="0"
       d="m 592.25057,259.06304 h -62.03192 v -14.195 h 62.03192 c 7.0829,0 16.90921,-0.88264 23.36431,-5.00321 4.80787,-3.07342 7.12816,-7.60683 6.86641,-13.47686 v -54.21749 h 22.85066 v 54.01185 c 0.44083,9.52239 -4.16236,17.73663 -13.31955,23.5861 -9.5193,6.08041 -23.26197,9.29461 -39.76183,9.29461 z"
       id="path236" />
    <path
       style="fill:#646c71"
       inkscape:connector-curvature="0"
       d="m 794.86391,259.02507 h -22.85459 v -54.03716 c 0.26371,-6.06143 -2.04871,-10.58061 -6.84871,-13.66668 -6.47674,-4.12848 -16.26763,-5.00163 -23.35446,-5.00163 h -50.71779 v 72.70547 h -22.85852 v -86.91628 h 73.57828 c 16.47427,0 30.21694,3.22685 39.73624,9.30884 9.15129,5.84472 13.75841,14.0732 13.32348,23.76168 v 53.84576 z"
       id="path238" />
    <path
       style="fill:#646c71"
       inkscape:connector-curvature="0"
       d="m 514.72839,259.06304 h -73.56254 c -16.45853,0 -30.20514,-3.21262 -39.73231,-9.29461 -9.15128,-5.8637 -13.76432,-14.09535 -13.31561,-23.79173 v -53.34118 h 22.87034 v 53.53574 c -0.26962,6.08041 2.02902,10.6075 6.83886,13.67301 6.47084,4.14271 16.2637,5.02535 23.33872,5.02535 h 50.70795 v -72.23251 h 22.85459 v 86.42593 z"
       id="path240" />
    <path
       style="fill:#646c71"
       inkscape:connector-curvature="0"
       d="m 359.59348,180.27558 c -8.38769,-5.35753 -20.40244,-8.19685 -34.79258,-8.19685 H 191.88885 v 86.98272 h 22.85656 v -72.76557 h 55.6949 v 72.76557 h 22.86246 v -72.76557 h 31.50009 c 5.62066,0 13.38252,0.68017 18.37342,3.8738 3.70971,2.36953 5.47305,5.90641 5.26051,10.74511 v 58.14666 h 22.8664 v -57.94577 c 0.39163,-8.47524 -3.66839,-15.69295 -11.70971,-20.8401 z"
       id="path242" />
    <path
       style="fill:#e60012"
       inkscape:connector-curvature="0"
       d="m 667.06083,151.48539 c 0,5.53469 -4.66223,10.03172 -10.42262,10.03172 -5.74268,0 -10.39507,-4.49703 -10.39507,-10.03172 0,-5.5426 4.65239,-10.0428 10.39507,-10.0428 5.76039,0 10.42262,4.5002 10.42262,10.0428 z"
       id="path244" />
    <path
       style="fill:url(#SVGID_1_)"
       inkscape:connector-curvature="0"
       d="m 248.85706,89.283011 c 0.24206,-1.47739 -0.69668,-2.17179 -2.0861,-1.55964 l -7.20885,3.22527 c -1.38942,0.61848 -2.72374,2.32998 -2.96384,3.80737 l -0.62976,3.83427 c -0.2401,1.469479 0.72817,2.280939 2.14711,1.798489 l 6.86051,-2.325229 c 1.42091,-0.48403 2.78277,-2.08638 3.02484,-3.56536 l 0.85609,-5.21517 z"
       id="path263" />
    <path
       style="fill:url(#SVGID_2_)"
       inkscape:connector-curvature="0"
       d="m 282.72271,80.366457 c -0.24207,1.474234 -1.6,3.112964 -3.0091,3.630214 l -7.28364,2.67797 c -1.4091,0.52357 -2.76703,2.15915 -3.00909,3.63021 l -0.90726,5.54576 c -0.24207,1.47107 0.73801,2.33947 2.16875,1.92346 l 10.71586,-3.1272 c 1.43469,-0.41285 2.80836,-1.95984 3.05043,-3.43723 l 0.77343,-4.72007 c 0.24207,-1.47107 1.6059,-3.08924 3.02091,-3.58434 l 9.20048,-3.244254 c 1.41697,-0.49669 2.77491,-2.11486 3.01697,-3.59067 l 1.6433,-10.02223 c 0.24206,-1.47265 -0.69471,-2.17655 -2.08217,-1.56281 l -13.32348,5.89217 c -1.38548,0.61848 -2.72177,2.32998 -2.96186,3.80105 l -1.01353,6.18797 z"
       id="path282" />
    <path
       style="fill:url(#SVGID_3_)"
       inkscape:connector-curvature="0"
       d="m 314.17754,-7.9418156 c -1.15917,1.05031 -2.30455,3.11297 -2.54662,4.58087 l -2.50135,15.2563796 c -0.24207,1.47265 0.62189,2.00571 1.92866,1.17053 l 14.29568,-9.1348496 c 1.30283,-0.83202 2.56433,-2.7191 2.80639,-4.19174999 l 3.46371,-21.13273041 c 0.24207,-1.47581 -0.51168,-1.82381 -1.67084,-0.78299 l -15.77563,14.2345404 z"
       id="path301" />
    <path
       style="fill:url(#SVGID_4_)"
       inkscape:connector-curvature="0"
       d="m 289.09712,20.198264 c 0.24206,-1.47265 -0.51366,-1.8333 -1.67085,-0.79248 l -12.19974,10.920693 c -1.16113,1.03607 -2.31046,3.09715 -2.55252,4.57296 l -1.54096,9.38635 c -0.24207,1.47423 0.60812,1.96458 1.8893,1.08985 l 11.1252,-7.59734 c 1.27921,-0.87157 2.523,-2.79345 2.76703,-4.26926 l 2.18254,-13.310773 z"
       id="path320" />
    <path
       style="fill:url(#SVGID_5_)"
       inkscape:connector-curvature="0"
       d="m 243.89372,63.164467 c 1.92865,-1.16262 2.41082,-1.93927 2.7198,-4.34834 l 0.46051,-2.56883 c 0.22436,-0.99495 0.16925,-1.58179 1.57442,-2.75865 l 4.54809,-3.71246 c 2.9166,-2.12119 3.23739,-4.06046 3.76088,-8.04974 l 1.77121,-10.80996 c 0.24207,-1.4774 -0.47035,-1.78743 -1.57638,-0.68334 l -12.00294,11.95044 c -1.9011,1.72415 -2.22189,2.75548 -2.45608,4.68052 l -0.51366,4.18384 c -0.22435,1.53908 -0.33653,2.07847 -1.74169,3.39136 l -50.58396,45.152244 c -1.16507,1.037659 -1.09619,1.143639 0.15941,0.22303 l 53.88039,-36.650114 z"
       id="path339" />
    <path
       style="fill:url(#SVGID_6_)"
       inkscape:connector-curvature="0"
       d="m 243.15177,108.1617 c -0.24206,1.46948 0.73998,2.39958 2.1845,2.05158 l 7.11832,-1.68461 c 1.4465,-0.34641 2.81821,-1.83329 3.06027,-3.3091 l 0.70849,-4.3183 c 0.24206,-1.475809 -0.72423,-2.303079 -2.15301,-1.828549 l -7.36826,2.402739 c -1.42878,0.47296 -2.79065,2.05792 -3.03075,3.53056 l -0.51956,3.15568 z"
       id="path358" />
    <path
       style="fill:url(#SVGID_7_)"
       inkscape:connector-curvature="0"
       d="m 277.4248,58.216627 c 0.24207,-1.47265 -0.63763,-2.0247 -1.95424,-1.21956 l -9.92471,6.05351 c -1.31661,0.80197 -2.59385,2.67007 -2.83395,4.14271 l -1.0706,6.52806 c -0.24207,1.47107 0.67897,2.12435 2.04674,1.44892 l 9.43271,-4.65363 c 1.36974,-0.67701 2.68831,-2.43438 2.92841,-3.90861 l 1.37564,-8.3914 z"
       id="path377" />
    <path
       style="fill:url(#SVGID_8_)"
       inkscape:connector-curvature="0"
       d="m 246.90675,69.716247 c -0.24206,1.47107 0.64945,2.06108 1.9818,1.29865 l 8.2637,-4.72955 c 1.33432,-0.76717 2.62337,-2.59731 2.86544,-4.06837 l 1.0706,-6.52806 c 0.24206,-1.47423 -0.60222,-1.95825 -1.87946,-1.07561 l -8.77145,6.07091 c -1.27528,0.88422 -2.50923,2.81085 -2.75326,4.28824 l -0.77737,4.74379 z"
       id="path396" />
    <path
       style="fill:url(#SVGID_9_)"
       inkscape:connector-curvature="0"
       d="m 18.520256,26.416287 c -1.09225,-0.64379 -1.9877,-0.2784 -1.9877,0.80988 v 19.91792 c 0,1.08827 0.96826,2.41065 2.15695,2.93896 L 165.91692,115.51703 c 1.18671,0.52674 1.26937,0.42392 0.18499,-0.22936 L 18.520256,26.416287 z"
       id="path415" />
    <path
       style="fill:url(#SVGID_10_)"
       inkscape:connector-curvature="0"
       d="m 16.532556,119.1599 c 0,1.08985 1.10799,2.01994 2.46199,2.07056 l 101.628444,3.64128 c 1.35596,0.0475 2.46199,-0.80355 2.46199,-1.89182 v -2.69379 c 0,-1.08827 -1.08438,-2.16547 -2.41082,-2.39167 L 18.945346,100.50741 c -1.32841,-0.2262 -2.41279,0.48086 -2.41279,1.56914 v 17.08335 z"
       id="path434" />
    <path
       style="fill:url(#SVGID_11_)"
       inkscape:connector-curvature="0"
       d="m 18.221116,-16.651156 c -0.92891,-0.79406 -1.68856,-0.55047 -1.68856,0.53939 V 6.7862444 c 0,1.08986 0.85018,2.5546 1.88536,3.2569096 L 151.07216,99.716511 c 1.03911,0.700739 1.13554,0.618479 0.21845,-0.1819 L 18.221116,-16.651156 z"
       id="path453" />
    <path
       style="fill:url(#SVGID_12_)"
       inkscape:connector-curvature="0"
       d="m 16.532556,263.62809 c 0,1.08827 0.7754,1.34294 1.72202,0.56153 L 121.36493,179.24267 c 0.94858,-0.78141 1.72005,-2.30942 1.72005,-3.39769 v -3.44514 c 0,-1.08828 -0.85019,-1.41254 -1.8952,-0.71655 L 18.429726,240.19543 c -1.04305,0.6944 -1.89717,2.1544 -1.89717,3.24425 v 20.18841 z"
       id="path472" />
    <path
       style="fill:url(#SVGID_13_)"
       inkscape:connector-curvature="0"
       d="m 16.532556,224.46451 c 0,1.08985 0.89742,1.46157 1.99557,0.82253 L 121.08941,165.69146 c 1.09815,-0.63746 1.9936,-2.05158 1.9936,-3.14144 v -3.07026 c 0,-1.08827 -0.97417,-1.55332 -2.16088,-1.03132 L 18.695406,203.29223 c -1.18868,0.51883 -2.16285,1.83488 -2.16285,2.92631 v 18.24597 z"
       id="path491" />
    <path
       style="fill:url(#SVGID_14_)"
       inkscape:connector-curvature="0"
       d="m 16.532556,153.4911 c 0,1.08827 1.08831,1.80482 2.41476,1.58496 L 120.67022,138.44668 c 1.32841,-0.21829 2.41476,-1.286 2.41476,-2.37585 v -2.61154 c 0,-1.08827 -1.10603,-1.9456 -2.46199,-1.90448 l -101.628444,3.09241 c -1.354,0.0411 -2.46199,0.96647 -2.46199,2.05474 v 16.78914 z"
       id="path510" />
    <path
       style="fill:url(#SVGID_15_)"
       inkscape:connector-curvature="0"
       d="m 16.532556,188.19719 c 0,1.08985 1.00959,1.61343 2.24157,1.16104 l 102.067314,-37.286 c 1.23394,-0.45081 2.24157,-1.7115 2.24157,-2.80135 v -2.7191 c 0,-1.08985 -1.0647,-1.73681 -2.36556,-1.43627 L 18.898116,168.52603 c -1.30086,0.29896 -2.36556,1.43468 -2.36556,2.52454 v 17.14662 z"
       id="path529" />
    <path
       style="fill:url(#SVGID_16_)"
       inkscape:connector-curvature="0"
       d="m 172.77349,121.60376 c -1.36777,0.46663 -3.1134,0.46663 -4.43001,0.0459 L 18.858756,64.863317 c -1.22805,-0.45556 -2.2337,0.0633 -2.2337,1.15312 v 18.086214 c 0,1.08827 1.05879,2.23665 2.35965,2.54826 L 168.21359,122.79327 c 1.30283,0.3132 3.42435,0.3132 4.71931,0 l 31.84646,-7.71282 c 1.2989,-0.31161 3.42042,-0.82727 4.71734,-1.14205 l 12.06001,-2.92157 c 1.2989,-0.31477 2.72177,-1.41254 3.17048,-2.44228 l 2.98352,-6.89978 c 0.44477,-1.02816 -0.19877,-1.49163 -1.42288,-1.03133 0,0 -9.15916,3.44831 -14.48658,5.46193 -21.7525,8.22373 -39.02776,15.49839 -39.02776,15.49839 z"
       id="path548" />
    <path
       style="fill:url(#SVGID_17_)"
       inkscape:connector-curvature="0"
       d="m 245.48584,73.539437 c 0.29914,-0.938 -0.246,-1.23221 -1.20639,-0.65486 0,0 -8.13382,4.8735 -13.04009,7.82038 -4.65436,2.798194 -9.25165,5.564744 -13.70921,8.255374 -21.32544,12.872619 -42.59971,26.351069 -42.59971,26.351069 -0.94071,0.59633 -0.85609,0.70231 0.19483,0.2341 l 34.88312,-15.567989 c 1.04698,-0.46821 2.76309,-1.2338 3.81402,-1.70201 l 10.29076,-4.59036 c 1.04699,-0.46979 2.7631,-1.23538 3.81402,-1.70201 l 11.71364,-5.22782 c 1.04699,-0.46979 2.15104,-1.61817 2.45018,-2.55617 l 3.39483,-10.659704 z"
       id="path567" />
  </g>
</svg>
